<?xml version="1.0" encoding="UTF-8"?>
<svg xmlns="http://www.w3.org/2000/svg" xmlns:xlink="http://www.w3.org/1999/xlink" width="1440pt" height="809.999993pt" viewBox="0 0 1440 809.999993" version="1.2">
<defs>
<clipPath id="clip1">
  <path d="M 653.609375 380.472656 L 682.109375 380.472656 L 682.109375 405.855469 L 653.609375 405.855469 Z M 653.609375 380.472656 "/>
</clipPath>
<clipPath id="clip2">
  <path d="M 712.289062 437.015625 L 740.789062 437.015625 L 740.789062 462.398438 L 712.289062 462.398438 Z M 712.289062 437.015625 "/>
</clipPath>
<clipPath id="clip3">
  <path d="M 594.144531 464 L 646.644531 464 L 646.644531 504.371094 L 594.144531 504.371094 Z M 594.144531 464 "/>
</clipPath>
</defs>
<g id="surface1">
<path style=" stroke:none;fill-rule:nonzero;fill:rgb(12.548828%,48.629761%,56.079102%);fill-opacity:1;" d="M 836.480469 311.1875 C 840.914062 311.1875 844.554688 314.84375 844.554688 319.296875 L 844.554688 480.941406 C 844.554688 485.390625 840.914062 489.050781 836.480469 489.050781 L 621.085938 489.050781 C 616.652344 489.050781 613.011719 485.390625 613.011719 480.941406 L 613.011719 319.296875 C 613.011719 314.84375 616.652344 311.1875 621.085938 311.1875 L 836.480469 311.1875 M 836.480469 303.714844 L 621.085938 303.714844 C 612.539062 303.714844 605.574219 310.710938 605.574219 319.296875 L 605.574219 480.941406 C 605.574219 489.527344 612.539062 496.523438 621.085938 496.523438 L 836.480469 496.523438 C 845.03125 496.523438 851.996094 489.527344 851.996094 480.941406 L 851.996094 319.296875 C 851.996094 310.710938 845.03125 303.714844 836.480469 303.714844 Z M 836.480469 303.714844 "/>
<path style=" stroke:none;fill-rule:nonzero;fill:rgb(12.548828%,48.629761%,56.079102%);fill-opacity:1;" d="M 684.042969 375.058594 C 684.734375 375.058594 685.304688 375.628906 685.304688 376.320312 L 685.304688 408.792969 C 685.304688 409.488281 684.734375 410.058594 684.042969 410.058594 L 651.570312 410.058594 C 650.875 410.058594 650.304688 409.488281 650.304688 408.792969 L 650.304688 376.320312 C 650.304688 375.628906 650.875 375.058594 651.570312 375.058594 L 684.042969 375.058594 M 684.042969 373.894531 L 651.570312 373.894531 C 650.230469 373.894531 649.140625 374.984375 649.140625 376.320312 L 649.140625 408.792969 C 649.140625 410.132812 650.230469 411.222656 651.570312 411.222656 L 684.042969 411.222656 C 685.378906 411.222656 686.46875 410.132812 686.46875 408.792969 L 686.46875 376.320312 C 686.46875 374.984375 685.378906 373.894531 684.042969 373.894531 Z M 684.042969 373.894531 "/>
<path style="fill:none;stroke-width:1;stroke-linecap:round;stroke-linejoin:miter;stroke:rgb(12.548828%,48.629761%,56.079102%);stroke-opacity:1;stroke-miterlimit:4;" d="M 0.500064 -0.0000214442 L 24.197386 -0.0000214442 " transform="matrix(9.748102,0,0,9.68019,609.351888,350.156458)"/>
<path style=" stroke:none;fill-rule:nonzero;fill:rgb(12.548828%,48.629761%,56.079102%);fill-opacity:1;" d="M 684.042969 432.367188 C 684.734375 432.367188 685.304688 432.9375 685.304688 433.628906 L 685.304688 466.101562 C 685.304688 466.796875 684.734375 467.367188 684.042969 467.367188 L 651.570312 467.367188 C 650.875 467.367188 650.304688 466.796875 650.304688 466.101562 L 650.304688 433.628906 C 650.304688 432.9375 650.875 432.367188 651.570312 432.367188 L 684.042969 432.367188 M 684.042969 431.203125 L 651.570312 431.203125 C 650.230469 431.203125 649.140625 432.292969 649.140625 433.628906 L 649.140625 466.101562 C 649.140625 467.441406 650.230469 468.53125 651.570312 468.53125 L 684.042969 468.53125 C 685.378906 468.53125 686.46875 467.441406 686.46875 466.101562 L 686.46875 433.628906 C 686.46875 432.292969 685.378906 431.203125 684.042969 431.203125 Z M 684.042969 431.203125 "/>
<path style=" stroke:none;fill-rule:nonzero;fill:rgb(12.548828%,48.629761%,56.079102%);fill-opacity:1;" d="M 808.007812 375.058594 C 808.703125 375.058594 809.269531 375.628906 809.269531 376.320312 L 809.269531 408.792969 C 809.269531 409.488281 808.703125 410.058594 808.007812 410.058594 L 775.535156 410.058594 C 774.839844 410.058594 774.269531 409.488281 774.269531 408.792969 L 774.269531 376.320312 C 774.269531 375.628906 774.839844 375.058594 775.535156 375.058594 L 808.007812 375.058594 M 808.007812 373.894531 L 775.535156 373.894531 C 774.195312 373.894531 773.105469 374.984375 773.105469 376.320312 L 773.105469 408.792969 C 773.105469 410.132812 774.195312 411.222656 775.535156 411.222656 L 808.007812 411.222656 C 809.34375 411.222656 810.433594 410.132812 810.433594 408.792969 L 810.433594 376.320312 C 810.433594 374.984375 809.34375 373.894531 808.007812 373.894531 Z M 808.007812 373.894531 "/>
<path style=" stroke:none;fill-rule:nonzero;fill:rgb(12.548828%,48.629761%,56.079102%);fill-opacity:1;" d="M 742.722656 375.058594 C 743.414062 375.058594 743.984375 375.628906 743.984375 376.320312 L 743.984375 408.792969 C 743.984375 409.488281 743.414062 410.058594 742.722656 410.058594 L 710.25 410.058594 C 709.554688 410.058594 708.984375 409.488281 708.984375 408.792969 L 708.984375 376.320312 C 708.984375 375.628906 709.554688 375.058594 710.25 375.058594 L 742.722656 375.058594 M 742.722656 373.894531 L 710.25 373.894531 C 708.910156 373.894531 707.820312 374.984375 707.820312 376.320312 L 707.820312 408.792969 C 707.820312 410.132812 708.910156 411.222656 710.25 411.222656 L 742.722656 411.222656 C 744.058594 411.222656 745.148438 410.132812 745.148438 408.792969 L 745.148438 376.320312 C 745.148438 374.984375 744.058594 373.894531 742.722656 373.894531 Z M 742.722656 373.894531 "/>
<path style=" stroke:none;fill-rule:nonzero;fill:rgb(12.548828%,48.629761%,56.079102%);fill-opacity:1;" d="M 808.007812 432.367188 C 808.703125 432.367188 809.269531 432.9375 809.269531 433.628906 L 809.269531 466.101562 C 809.269531 466.796875 808.703125 467.367188 808.007812 467.367188 L 775.535156 467.367188 C 774.839844 467.367188 774.269531 466.796875 774.269531 466.101562 L 774.269531 433.628906 C 774.269531 432.9375 774.839844 432.367188 775.535156 432.367188 L 808.007812 432.367188 M 808.007812 431.203125 L 775.535156 431.203125 C 774.195312 431.203125 773.105469 432.292969 773.105469 433.628906 L 773.105469 466.101562 C 773.105469 467.441406 774.195312 468.53125 775.535156 468.53125 L 808.007812 468.53125 C 809.34375 468.53125 810.433594 467.441406 810.433594 466.101562 L 810.433594 433.628906 C 810.433594 432.292969 809.34375 431.203125 808.007812 431.203125 Z M 808.007812 431.203125 "/>
<path style=" stroke:none;fill-rule:nonzero;fill:rgb(12.548828%,48.629761%,56.079102%);fill-opacity:1;" d="M 742.722656 432.367188 C 743.414062 432.367188 743.984375 432.9375 743.984375 433.628906 L 743.984375 466.101562 C 743.984375 466.796875 743.414062 467.367188 742.722656 467.367188 L 710.25 467.367188 C 709.554688 467.367188 708.984375 466.796875 708.984375 466.101562 L 708.984375 433.628906 C 708.984375 432.9375 709.554688 432.367188 710.25 432.367188 L 742.722656 432.367188 M 742.722656 431.203125 L 710.25 431.203125 C 708.910156 431.203125 707.820312 432.292969 707.820312 433.628906 L 707.820312 466.101562 C 707.820312 467.441406 708.910156 468.53125 710.25 468.53125 L 742.722656 468.53125 C 744.058594 468.53125 745.148438 467.441406 745.148438 466.101562 L 745.148438 433.628906 C 745.148438 432.292969 744.058594 431.203125 742.722656 431.203125 Z M 742.722656 431.203125 "/>
<g clip-path="url(#clip1)" clip-rule="nonzero">
<path style=" stroke:none;fill-rule:nonzero;fill:rgb(77.648926%,18.818665%,17.248535%);fill-opacity:1;" d="M 682.199219 386.777344 C 680.585938 378.644531 670.453125 378.507812 667.953125 386.109375 C 665.453125 378.507812 655.320312 378.644531 653.707031 386.777344 C 652.238281 394.152344 667.953125 405.792969 667.953125 405.792969 C 667.953125 405.792969 683.667969 394.152344 682.199219 386.777344 Z M 682.199219 386.777344 "/>
</g>
<g clip-path="url(#clip2)" clip-rule="nonzero">
<path style=" stroke:none;fill-rule:nonzero;fill:rgb(77.648926%,18.818665%,17.248535%);fill-opacity:1;" d="M 740.882812 443.316406 C 739.265625 435.1875 729.132812 435.050781 726.632812 442.652344 C 724.136719 435.050781 714 435.1875 712.386719 443.316406 C 710.917969 450.695312 726.632812 462.332031 726.632812 462.332031 C 726.632812 462.332031 742.347656 450.695312 740.882812 443.316406 Z M 740.882812 443.316406 "/>
</g>
<path style="fill:none;stroke-width:1;stroke-linecap:round;stroke-linejoin:miter;stroke:rgb(12.548828%,48.629761%,56.079102%);stroke-opacity:1;stroke-miterlimit:4;" d="M 0.500256 -0.0000570176 L 4.601856 -0.0000570176 " transform="matrix(0.000000000000000369,6.027565,-5.873805,0.00000000000000036,703.308259,294.199517)"/>
<path style="fill:none;stroke-width:1;stroke-linecap:round;stroke-linejoin:miter;stroke:rgb(12.548828%,48.629761%,56.079102%);stroke-opacity:1;stroke-miterlimit:4;" d="M 0.500256 0.00011892 L 4.601856 0.00011892 " transform="matrix(0.000000000000000369,6.027565,-5.873805,0.00000000000000036,650.172574,294.199517)"/>
<path style="fill:none;stroke-width:1;stroke-linecap:round;stroke-linejoin:miter;stroke:rgb(12.548828%,48.629761%,56.079102%);stroke-opacity:1;stroke-miterlimit:4;" d="M 0.500256 0.000237952 L 4.601856 0.000237952 " transform="matrix(0.000000000000000369,6.027565,-5.873805,0.00000000000000036,810.778741,294.199517)"/>
<path style="fill:none;stroke-width:1;stroke-linecap:round;stroke-linejoin:miter;stroke:rgb(12.548828%,48.629761%,56.079102%);stroke-opacity:1;stroke-miterlimit:4;" d="M 0.500256 -0.000249596 L 4.601856 -0.000249596 " transform="matrix(0.000000000000000369,6.027565,-5.873805,0.00000000000000036,756.37744,294.199517)"/>
<path style=" stroke:none;fill-rule:nonzero;fill:rgb(12.548828%,48.629761%,56.079102%);fill-opacity:1;" d="M 615.8125 458.960938 C 614.882812 458.960938 613.953125 459.003906 613.027344 459.097656 C 612.101562 459.1875 611.179688 459.324219 610.269531 459.507812 C 609.355469 459.6875 608.453125 459.914062 607.5625 460.183594 C 606.671875 460.453125 605.796875 460.765625 604.9375 461.125 C 604.078125 461.480469 603.238281 461.875 602.414062 462.316406 C 601.59375 462.753906 600.796875 463.230469 600.023438 463.75 C 599.25 464.265625 598.503906 464.820312 597.785156 465.410156 C 597.0625 466 596.375 466.625 595.71875 467.285156 C 595.058594 467.941406 594.433594 468.628906 593.84375 469.351562 C 593.253906 470.070312 592.699219 470.816406 592.183594 471.589844 C 591.667969 472.363281 591.1875 473.160156 590.75 473.980469 C 590.3125 474.800781 589.914062 475.644531 589.558594 476.503906 C 589.199219 477.363281 588.886719 478.238281 588.617188 479.128906 C 588.347656 480.019531 588.121094 480.921875 587.941406 481.832031 C 587.757812 482.746094 587.621094 483.664062 587.53125 484.59375 C 587.441406 485.519531 587.394531 486.445312 587.394531 487.378906 C 587.394531 488.308594 587.441406 489.238281 587.53125 490.164062 C 587.621094 491.089844 587.757812 492.007812 587.941406 492.921875 C 588.121094 493.835938 588.347656 494.734375 588.617188 495.625 C 588.886719 496.515625 589.199219 497.394531 589.558594 498.253906 C 589.914062 499.113281 590.3125 499.953125 590.75 500.773438 C 591.1875 501.59375 591.667969 502.390625 592.183594 503.164062 C 592.699219 503.941406 593.253906 504.6875 593.84375 505.40625 C 594.433594 506.125 595.058594 506.8125 595.71875 507.472656 C 596.375 508.128906 597.0625 508.753906 597.785156 509.34375 C 598.503906 509.933594 599.25 510.488281 600.023438 511.007812 C 600.796875 511.523438 601.59375 512 602.414062 512.441406 C 603.238281 512.878906 604.078125 513.277344 604.9375 513.632812 C 605.796875 513.988281 606.671875 514.300781 607.5625 514.570312 C 608.453125 514.84375 609.355469 515.066406 610.269531 515.25 C 611.179688 515.429688 612.101562 515.566406 613.027344 515.660156 C 613.953125 515.75 614.882812 515.796875 615.8125 515.796875 C 616.742188 515.796875 617.671875 515.75 618.597656 515.660156 C 619.523438 515.566406 620.441406 515.429688 621.355469 515.25 C 622.269531 515.066406 623.171875 514.84375 624.0625 514.570312 C 624.953125 514.300781 625.828125 513.988281 626.6875 513.632812 C 627.546875 513.277344 628.386719 512.878906 629.207031 512.441406 C 630.027344 512 630.824219 511.523438 631.601562 511.007812 C 632.375 510.488281 633.121094 509.933594 633.839844 509.34375 C 634.558594 508.753906 635.25 508.128906 635.90625 507.472656 C 636.5625 506.8125 637.1875 506.125 637.777344 505.40625 C 638.371094 504.6875 638.921875 503.941406 639.441406 503.164062 C 639.957031 502.390625 640.433594 501.59375 640.875 500.773438 C 641.3125 499.953125 641.710938 499.113281 642.066406 498.253906 C 642.421875 497.394531 642.734375 496.515625 643.007812 495.625 C 643.277344 494.734375 643.5 493.835938 643.683594 492.921875 C 643.863281 492.007812 644 491.089844 644.09375 490.164062 C 644.183594 489.238281 644.230469 488.308594 644.230469 487.378906 C 644.230469 486.445312 644.183594 485.519531 644.09375 484.59375 C 644 483.664062 643.863281 482.746094 643.683594 481.832031 C 643.5 480.921875 643.277344 480.019531 643.007812 479.128906 C 642.734375 478.238281 642.421875 477.363281 642.066406 476.503906 C 641.710938 475.644531 641.3125 474.800781 640.875 473.980469 C 640.433594 473.160156 639.957031 472.363281 639.441406 471.589844 C 638.921875 470.816406 638.371094 470.070312 637.777344 469.351562 C 637.1875 468.628906 636.5625 467.941406 635.90625 467.285156 C 635.25 466.625 634.558594 466 633.839844 465.410156 C 633.121094 464.820312 632.375 464.265625 631.601562 463.75 C 630.824219 463.230469 630.027344 462.753906 629.207031 462.316406 C 628.386719 461.875 627.546875 461.480469 626.6875 461.125 C 625.828125 460.765625 624.953125 460.453125 624.0625 460.183594 C 623.171875 459.914062 622.269531 459.6875 621.355469 459.507812 C 620.441406 459.324219 619.523438 459.1875 618.597656 459.097656 C 617.671875 459.003906 616.742188 458.960938 615.8125 458.960938 Z M 615.8125 458.960938 "/>
<path style=" stroke:none;fill-rule:nonzero;fill:rgb(100%,100%,100%);fill-opacity:1;" d="M 615.8125 465.203125 C 615.085938 465.203125 614.359375 465.238281 613.636719 465.308594 C 612.914062 465.378906 612.199219 465.488281 611.484375 465.628906 C 610.773438 465.769531 610.070312 465.945312 609.375 466.15625 C 608.679688 466.367188 607.996094 466.613281 607.324219 466.890625 C 606.65625 467.167969 606 467.476562 605.359375 467.820312 C 604.71875 468.164062 604.09375 468.535156 603.492188 468.9375 C 602.886719 469.34375 602.304688 469.773438 601.742188 470.234375 C 601.183594 470.695312 600.644531 471.183594 600.132812 471.695312 C 599.617188 472.210938 599.128906 472.75 598.667969 473.308594 C 598.210938 473.871094 597.777344 474.453125 597.375 475.058594 C 596.96875 475.660156 596.597656 476.285156 596.253906 476.925781 C 595.914062 477.566406 595.601562 478.21875 595.324219 478.890625 C 595.046875 479.5625 594.800781 480.246094 594.589844 480.941406 C 594.378906 481.636719 594.203125 482.339844 594.0625 483.050781 C 593.921875 483.765625 593.8125 484.480469 593.742188 485.203125 C 593.671875 485.925781 593.636719 486.652344 593.636719 487.378906 C 593.636719 488.105469 593.671875 488.828125 593.742188 489.550781 C 593.8125 490.273438 593.921875 490.992188 594.0625 491.703125 C 594.203125 492.417969 594.378906 493.121094 594.589844 493.816406 C 594.800781 494.511719 595.046875 495.191406 595.324219 495.863281 C 595.601562 496.535156 595.914062 497.191406 596.253906 497.832031 C 596.597656 498.472656 596.96875 499.09375 597.375 499.699219 C 597.777344 500.300781 598.210938 500.882812 598.667969 501.445312 C 599.128906 502.007812 599.617188 502.542969 600.132812 503.058594 C 600.644531 503.570312 601.183594 504.058594 601.742188 504.519531 C 602.304688 504.980469 602.886719 505.414062 603.492188 505.816406 C 604.09375 506.21875 604.71875 506.59375 605.359375 506.933594 C 606 507.277344 606.65625 507.585938 607.324219 507.863281 C 607.996094 508.144531 608.679688 508.386719 609.375 508.597656 C 610.070312 508.808594 610.773438 508.984375 611.484375 509.128906 C 612.199219 509.269531 612.914062 509.375 613.636719 509.445312 C 614.359375 509.519531 615.085938 509.554688 615.8125 509.554688 C 616.539062 509.554688 617.261719 509.519531 617.984375 509.445312 C 618.707031 509.375 619.425781 509.269531 620.136719 509.128906 C 620.851562 508.984375 621.554688 508.808594 622.25 508.597656 C 622.945312 508.386719 623.628906 508.144531 624.296875 507.863281 C 624.96875 507.585938 625.625 507.277344 626.265625 506.933594 C 626.90625 506.59375 627.527344 506.21875 628.132812 505.816406 C 628.734375 505.414062 629.320312 504.980469 629.878906 504.519531 C 630.441406 504.058594 630.980469 503.570312 631.492188 503.058594 C 632.003906 502.542969 632.492188 502.007812 632.953125 501.445312 C 633.414062 500.882812 633.847656 500.300781 634.25 499.699219 C 634.652344 499.09375 635.027344 498.472656 635.367188 497.832031 C 635.710938 497.191406 636.019531 496.535156 636.300781 495.863281 C 636.578125 495.191406 636.820312 494.511719 637.03125 493.816406 C 637.242188 493.121094 637.417969 492.417969 637.5625 491.703125 C 637.703125 490.992188 637.808594 490.273438 637.878906 489.550781 C 637.953125 488.828125 637.988281 488.105469 637.988281 487.378906 C 637.988281 486.652344 637.953125 485.925781 637.878906 485.203125 C 637.808594 484.480469 637.703125 483.765625 637.5625 483.050781 C 637.417969 482.339844 637.242188 481.636719 637.03125 480.941406 C 636.820312 480.246094 636.578125 479.5625 636.300781 478.890625 C 636.019531 478.21875 635.710938 477.566406 635.367188 476.925781 C 635.027344 476.285156 634.652344 475.660156 634.25 475.058594 C 633.847656 474.453125 633.414062 473.871094 632.953125 473.308594 C 632.492188 472.75 632.003906 472.210938 631.492188 471.695312 C 630.980469 471.183594 630.441406 470.695312 629.878906 470.234375 C 629.320312 469.773438 628.734375 469.34375 628.132812 468.9375 C 627.527344 468.535156 626.90625 468.164062 626.265625 467.820312 C 625.625 467.476562 624.96875 467.167969 624.296875 466.890625 C 623.628906 466.613281 622.945312 466.367188 622.25 466.15625 C 621.554688 465.945312 620.851562 465.769531 620.136719 465.628906 C 619.425781 465.488281 618.707031 465.378906 617.984375 465.308594 C 617.261719 465.238281 616.539062 465.203125 615.8125 465.203125 Z M 615.8125 465.203125 "/>
<g clip-path="url(#clip3)" clip-rule="nonzero">
<path style=" stroke:none;fill-rule:nonzero;fill:rgb(12.548828%,48.629761%,56.079102%);fill-opacity:1;" d="M 610.851562 495.671875 L 598.410156 483.226562 L 594.191406 487.449219 L 610.851562 504.117188 L 646.644531 468.300781 L 642.425781 464.078125 Z M 610.851562 495.671875 "/>
</g>
</g>
</svg>
